<svg width="471" height="143" viewBox="0 0 471 143" fill="none" xmlns="http://www.w3.org/2000/svg">
<path d="M15.1187 128.667H14.5118C11.5873 128.611 9.21469 128.169 7.449 127.228C5.62814 126.287 4.30387 125.291 3.4762 124.184C1.15873 121.473 0 118.041 0 113.891C0 107.416 2.53818 100.111 7.66972 91.9207C16.2223 78.6389 28.5269 67.6262 44.5285 58.8824C56.7228 52.4075 69.1378 48.3123 81.7735 46.6521C84.3669 38.4063 85.6911 30.9354 85.6911 24.1838C85.6911 21.3061 85.4153 18.7604 84.8635 16.5468C83.7599 12.1749 81.7735 9.57392 78.9043 8.74381C77.6904 8.4671 76.4213 8.30108 74.9315 8.30108C72.5588 8.30108 69.7448 8.74381 66.6548 9.57392C61.6888 10.9574 56.7228 12.9497 51.7016 15.5507C46.6804 18.207 42.4869 21.0848 39.2314 24.1285C35.9208 27.1722 34.2654 29.6625 34.2654 31.6548L34.3758 32.6509C34.3758 33.0937 34.2102 33.5364 33.9344 33.9791C33.6585 34.3665 33.217 34.6432 32.6101 34.8092L32.1687 34.8646C30.6237 34.8646 29.8512 33.8131 29.8512 31.6548C29.8512 28.3344 31.8928 24.7372 36.0863 20.8634C41.7144 15.7721 48.9427 11.4555 57.8263 7.85836C60.6404 6.69621 63.6752 5.70008 66.8755 4.98065C70.0758 4.20588 72.7244 3.87384 74.8211 3.87384C76.642 3.87384 78.4077 4.03986 80.1182 4.48258C84.5876 5.81076 87.6224 9.46323 89.1673 15.4954C89.7743 18.041 90.1054 20.9187 90.1054 24.0731C90.1054 28.8324 89.3881 34.3665 88.0086 40.5646C87.6224 42.3909 87.1258 44.2171 86.5188 46.154C88.5604 45.988 90.602 45.9327 92.5884 45.9327C93.1953 45.9327 93.7471 46.154 94.1885 46.5967C94.5748 47.0395 94.7955 47.5375 94.7955 48.1463C94.7955 48.755 94.5748 49.3084 94.1885 49.6958C93.7471 50.1385 93.1953 50.3599 92.5884 50.3599C90.1054 50.3599 87.6224 50.4706 85.0842 50.7473C81.001 62.8115 75.2625 74.8204 67.8687 86.774C65.165 91.2012 61.9095 95.8498 58.1574 100.664C54.3501 105.479 50.1015 110.017 45.4113 114.278C40.666 118.539 35.5345 121.971 30.0167 124.627C23.892 127.339 18.926 128.667 15.1187 128.667ZM14.5118 124.24C18.2087 124.24 22.7333 123.022 28.1407 120.587C33.3826 118.097 38.2382 114.776 42.7076 110.736C47.177 106.697 51.205 102.38 54.7916 97.7314C58.3781 93.0828 61.5233 88.6556 64.1718 84.3943C70.9035 73.4923 76.2557 62.4241 80.2285 51.3007C66.2686 53.459 53.1362 58.3843 40.8316 66.0213C28.4718 73.6583 18.6501 83.0662 11.3666 94.3003C6.73169 101.661 4.41423 108.191 4.41423 113.836C4.41423 116.99 5.24189 119.48 6.78687 121.306C8.66292 123.243 11.2563 124.24 14.5118 124.24Z" fill="#402E42"/>
<path d="M112.428 94.6877C111.821 94.6877 111.269 94.6323 110.773 94.4663C108.235 93.6362 106.965 91.2012 106.965 87.2721C106.965 83.9516 108.014 79.5797 110.166 74.2117C102.055 84.1176 95.9299 89.043 91.902 89.043C89.9156 89.043 88.3706 88.1575 87.2118 86.4419L87.1015 86.1652C86.7152 85.2245 86.5497 84.173 86.5497 82.9555C86.5497 81.7933 86.7152 80.4652 87.1015 78.971C87.8188 75.9826 88.9224 72.9942 90.357 70.0058C91.7916 67.0174 93.171 64.5824 94.5505 62.7008C94.9367 62.2028 95.323 61.9814 95.7092 61.9261C96.0403 61.8707 96.3162 61.8154 96.4265 61.8154C96.8128 61.8154 97.2542 61.9814 97.6404 62.2581C98.137 62.6455 98.4129 63.0329 98.4681 63.3649C98.5233 63.697 98.5233 63.9183 98.5233 64.029C98.5233 64.4717 98.4129 64.9145 98.0819 65.3572C96.0403 68.1796 94.2194 71.7214 92.6193 75.9272C91.7916 78.3622 91.295 80.0778 91.1295 81.0739C91.0191 82.07 90.9639 82.7895 90.9639 83.2322C90.9639 83.6749 90.9639 84.007 91.0743 84.2283C91.1846 84.3943 91.295 84.4497 91.4054 84.505C91.5157 84.5604 91.6261 84.6157 91.7364 84.6157H91.8468C92.1227 84.6157 92.6193 84.505 93.2814 84.2283C93.9987 83.9516 95.0471 83.2322 96.4265 82.1807C97.7508 81.1293 99.4613 79.5244 101.558 77.3661C105.917 72.4408 109.614 68.0135 112.538 64.029C113.476 62.8115 114.194 61.8707 114.746 61.2067C115.132 60.6532 115.518 60.2105 116.015 59.8785C116.456 59.5464 116.898 59.3804 117.284 59.3804C117.615 59.3804 117.946 59.4358 118.277 59.6018C119.16 60.0445 119.601 60.7086 119.601 61.594C119.601 62.3688 118.884 64.4717 117.394 67.9029C116.235 70.6145 114.966 73.769 113.697 77.2554C112.428 80.7972 111.656 83.7856 111.435 86.1652L111.38 87.2721C111.38 89.0983 111.656 90.0944 112.152 90.2604C112.263 90.3158 112.373 90.3158 112.483 90.3158C114.47 90.3158 118.056 87.8808 123.353 83.0662C125.891 80.6312 128.154 78.2515 130.14 75.9826C132.071 73.7136 133.451 71.9981 134.168 70.8359C134.499 70.3378 134.83 70.0058 135.217 69.8951C135.603 69.8398 135.879 69.7844 136.044 69.7844C136.43 69.7844 136.817 69.8951 137.203 70.1165C137.7 70.5039 138.031 70.8359 138.086 71.2233C138.196 71.5553 138.251 71.832 138.251 71.9981C138.251 72.3854 138.141 72.7728 137.92 73.1602C136.982 74.5991 135.492 76.536 133.396 78.971C131.244 81.406 128.926 83.8409 126.333 86.2759C120.429 91.8653 115.794 94.6877 112.428 94.6877Z" fill="#402E42"/>
<path d="M127.854 94.3003L127.302 94.245C126.585 94.0789 126.088 93.7469 125.812 93.2488C125.536 92.7508 125.371 92.2527 125.315 91.6993C125.26 91.2012 125.205 90.7585 125.205 90.4265C125.315 87.0507 126.033 83.5642 127.302 79.9118C128.571 76.2593 130.006 72.9389 131.606 69.8951C133.151 66.9067 134.365 64.7485 135.192 63.3649C135.523 62.8669 135.91 62.5348 136.296 62.4241C136.682 62.3688 136.903 62.3135 137.068 62.3135C137.455 62.3135 137.841 62.4241 138.227 62.6455C138.724 62.9776 139.055 63.3096 139.165 63.697C139.22 64.0844 139.275 64.3611 139.275 64.5824C139.275 64.9698 139.165 65.3019 139 65.6892C135.965 70.6145 133.482 75.8719 131.44 81.5166C133.482 78.1409 135.854 74.7097 138.448 71.2233C141.041 67.7922 143.524 65.0252 145.842 62.9776C146.89 62.0368 147.773 61.3173 148.6 60.93C149.373 60.5426 150.035 60.3765 150.532 60.3765C151.028 60.3765 151.525 60.4872 152.021 60.7639C153.07 61.428 153.622 62.4241 153.622 63.8077C153.622 65.1358 153.456 66.7407 153.07 68.5669C152.463 71.4447 152.187 74.5991 152.187 78.0302C152.242 79.5244 152.353 80.6865 152.573 81.4613C152.739 82.2914 152.96 82.8448 153.235 83.1215C153.456 83.4536 153.622 83.6196 153.732 83.6749C153.842 83.7303 154.008 83.7303 154.229 83.7303H154.56C154.946 83.7303 155.498 83.5642 156.27 83.2322C157.043 82.9002 158.036 82.2914 159.305 81.406C160.519 80.5759 162.009 79.303 163.83 77.5875C165.595 75.9272 167.692 73.769 170.12 71.1126C170.561 70.6699 170.947 70.4485 171.279 70.3932C171.554 70.3932 171.775 70.3932 171.83 70.3932C172.327 70.3932 172.824 70.5592 173.21 70.9466C173.706 71.3893 173.927 71.8874 173.982 72.4961C173.982 73.1049 173.762 73.6029 173.375 74.101C164.988 83.5089 158.643 88.2128 154.284 88.2128C153.456 88.2128 152.684 88.0468 151.966 87.7148C149.759 86.5526 148.49 84.7817 148.214 82.5128C147.938 80.2438 147.773 78.3622 147.773 76.868C147.773 74.101 148.104 71.0573 148.711 67.7368C148.821 67.2388 148.932 66.6854 148.987 66.0766L148.711 66.298C145.786 68.9543 142.696 72.6068 139.441 77.3108C136.185 82.0147 133.702 85.9992 132.102 89.2643C131.606 90.3711 131.109 91.3119 130.668 92.142C130.502 92.5294 130.171 92.9721 129.73 93.4702C129.233 93.9683 128.626 94.245 127.854 94.3003Z" fill="#402E42"/>
<path d="M184.938 68.6223C184.276 68.5116 183.559 68.1796 182.842 67.6262C182.566 67.4601 182.235 67.2941 181.848 67.2388C181.462 67.1834 181.186 67.1281 180.966 67.1281C179.641 67.1281 178.207 67.5708 176.662 68.5116C173.075 70.7252 170.427 73.3262 168.606 76.37C166.785 79.4137 165.847 82.0147 165.847 84.1176V84.2283C165.902 85.1691 166.012 85.6672 166.178 85.7225C166.288 85.7779 166.399 85.8332 166.564 85.8332C167.392 85.8332 168.606 85.3905 170.096 84.4497C172.689 82.7341 175.393 80.1885 178.207 76.9234C180.69 73.9903 182.952 71.2786 184.938 68.6223ZM148.024 138.573C156.798 137.853 165.681 127.947 174.62 108.744C176.993 103.487 179.365 97.6207 181.683 91.2012C176.055 95.4625 170.813 99.8897 165.902 104.594C160.991 109.298 156.908 113.946 153.542 118.539C150.176 123.465 148.08 127.283 147.307 129.94C146.535 132.651 146.148 134.588 146.148 135.806C146.148 136.691 146.314 137.355 146.59 137.853C146.645 137.964 146.7 138.075 146.866 138.185C146.976 138.296 147.142 138.407 147.362 138.462C147.583 138.517 147.804 138.573 148.024 138.573ZM187.145 65.7999C187.863 64.8591 188.525 64.0844 189.077 63.4203C189.573 62.7562 190.125 62.2028 190.732 61.8154C191.284 61.428 191.78 61.2067 192.222 61.2067C192.608 61.2067 192.994 61.3173 193.381 61.4834C193.822 61.6494 194.153 61.9814 194.374 62.3688C194.539 62.7562 194.65 63.1989 194.65 63.6416C194.65 64.8038 193.16 70.1718 190.18 79.7457C195.533 76.1486 200.664 73.1049 205.52 70.5592C205.851 70.3932 206.182 70.3378 206.513 70.3378C207.451 70.3378 208.113 70.7252 208.499 71.5C208.665 71.8874 208.775 72.2194 208.775 72.5515C208.775 73.3816 208.389 74.0457 207.561 74.4884C201.492 77.6428 194.981 81.6827 187.973 86.608C175.889 122.524 162.922 141.34 149.183 142.945L148.135 143C146.535 143 145.321 142.668 144.493 142.004C143.665 141.34 143.058 140.731 142.783 140.122C142.065 138.849 141.734 137.355 141.734 135.64C141.734 133.979 142.065 132.098 142.672 130.05C143.941 125.789 146.369 121.085 149.956 115.994C153.708 110.847 157.956 106.033 162.702 101.55C167.392 97.0673 171.751 93.3042 175.779 90.1498C178.538 87.9915 181.352 85.8885 184.221 83.8409C185.49 80.0778 186.704 76.1486 187.863 72.0534C185.6 74.9865 183.117 77.9748 180.414 81.0186C177.71 84.0623 175.006 86.4973 172.413 88.2128C170.261 89.5964 168.33 90.2604 166.675 90.2604C165.736 90.2604 164.909 90.0391 164.136 89.6517C163.585 89.375 163.033 88.8769 162.426 88.0468C161.819 87.2167 161.488 85.9992 161.433 84.2837C161.433 81.1846 162.591 77.7535 164.854 74.0457C167.116 70.3378 170.261 67.1834 174.399 64.6931C176.441 63.531 177.931 62.9222 178.924 62.8115C179.862 62.7562 180.524 62.7008 180.91 62.7008C181.904 62.7008 182.786 62.8115 183.504 63.0882C184.552 63.4756 185.325 63.9183 185.876 64.3611C186.373 64.8591 186.814 65.3019 187.145 65.7999Z" fill="#402E42"/>
<path d="M195.839 99.6683C195.343 99.6683 194.956 99.5577 194.625 99.3363C193.963 98.9489 193.522 98.5062 193.356 97.9528C193.191 97.3994 193.136 96.846 193.136 96.3479C193.136 94.6323 194.018 91.3119 195.839 86.3866C198.212 80.2438 200.364 74.9311 202.295 70.5592C204.226 66.1873 205.275 63.9183 205.44 63.6416C205.716 63.0882 206.047 62.7562 206.433 62.5902C206.82 62.4241 207.151 62.3688 207.371 62.3688C207.703 62.3688 208.034 62.4241 208.365 62.5902C208.916 62.8669 209.247 63.2543 209.413 63.6416C209.579 64.029 209.634 64.3057 209.634 64.5271C209.634 64.8591 209.579 65.1912 209.413 65.5232C209.247 65.7999 208.254 68.0689 206.323 72.3854C204.392 76.702 202.295 81.904 199.978 87.9361V88.0468C202.792 83.5089 206.047 78.5283 209.744 73.1049C213.441 67.7368 216.917 63.531 220.062 60.4872C222.104 58.6056 223.925 57.6649 225.47 57.6649C227.07 57.6649 228.284 58.4396 229.056 60.0998L229.112 60.1552C229.387 60.7086 229.498 61.3727 229.498 62.0921C229.498 63.7523 228.449 66.7407 226.408 71.1126L226.297 71.2786C223.814 76.37 222.435 80.1885 222.104 82.7895C222.932 81.6273 223.814 80.3545 224.642 78.971C226.187 76.37 228.008 73.8796 230.16 71.3893C231.208 70.1718 232.312 69.231 233.415 68.5116C234.574 67.7922 235.512 67.4601 236.34 67.4601C236.892 67.4601 237.443 67.5708 237.995 67.7922C239.264 68.5669 239.926 69.4524 239.982 70.4485C240.037 71.4447 240.037 72.1087 240.037 72.3854C240.037 73.769 239.761 75.7612 239.209 78.4176C238.823 80.2991 238.492 82.0147 238.271 83.6196C238.05 85.1691 237.94 86.3313 237.94 87.1614C237.94 88.2128 238.05 89.1536 238.271 89.9837C238.326 90.2604 238.437 90.4265 238.492 90.5371C238.547 90.6478 238.657 90.7032 238.712 90.7585C238.768 90.8139 238.878 90.8139 238.933 90.8692C238.988 90.8692 239.154 90.8692 239.319 90.8692C240.423 90.8692 242.685 89.707 246.051 87.3827C249.914 84.7264 255.487 79.469 262.715 71.666L262.88 71.5C263.322 71.0573 263.708 70.8359 264.039 70.7806C264.315 70.7806 264.536 70.7806 264.536 70.7806C265.032 70.7806 265.529 71.0019 265.97 71.3893C266.467 71.7767 266.688 72.1641 266.688 72.4961C266.688 72.7728 266.688 72.9942 266.688 73.0495C266.688 73.6583 266.467 74.2117 265.97 74.6544C261.722 79.303 257.804 83.2322 254.217 86.4419C249.362 90.7032 245.886 93.2488 243.789 94.0789C241.637 94.909 240.092 95.2964 239.044 95.2964C238.657 95.2964 238.271 95.2411 237.995 95.1304C235.016 94.411 233.471 91.7546 233.471 87.1614C233.471 84.7264 233.967 81.5166 234.905 77.5321C235.402 75.0971 235.678 73.4369 235.678 72.5515V72.3301C235.181 72.6068 234.409 73.3262 233.415 74.3777C231.539 76.536 229.884 78.8603 228.394 81.3506C227.401 82.9555 226.408 84.3943 225.47 85.6672C224.477 86.94 223.428 87.9361 222.269 88.6002C221.607 88.9323 221.056 89.043 220.559 89.043C219.842 89.043 219.235 88.8769 218.738 88.4342C217.855 87.8255 217.414 86.6633 217.414 84.8924C217.414 81.2399 219.069 76.0933 222.325 69.4524L222.38 69.231C222.876 68.2349 223.373 67.0174 223.98 65.5786C224.587 64.195 224.918 63.0882 225.028 62.2581C224.642 62.4241 223.98 62.9222 222.987 63.7523C219.786 66.9067 216.2 71.4447 212.227 77.3661C208.199 83.2875 204.944 88.3235 202.405 92.4741C200.86 94.9644 199.812 96.5693 199.26 97.2887C198.598 98.2295 197.991 98.8382 197.439 99.1703C196.832 99.5023 196.336 99.6683 195.839 99.6683Z" fill="#402E42"/>
<path d="M259.876 93.9683C258.663 93.9683 257.614 93.6362 256.676 92.9721C255.076 91.8653 254.303 90.0391 254.303 87.4381C254.303 82.2361 257.393 74.3777 263.629 63.9183C263.96 63.3649 264.291 63.0329 264.677 62.9222C265.063 62.8669 265.284 62.8115 265.449 62.8115C265.836 62.8115 266.277 62.9222 266.663 63.1436C267.215 63.4756 267.546 63.8077 267.601 64.195C267.657 64.5824 267.712 64.9145 267.712 65.0805C267.712 65.4679 267.601 65.7999 267.436 66.1873C264.125 71.7767 261.863 76.2593 260.649 79.5797C259.38 82.9002 258.773 85.0031 258.773 85.8332C258.773 86.6633 258.773 87.106 258.773 87.2721C258.773 88.5449 258.938 89.2643 259.214 89.375C259.38 89.4857 259.601 89.541 259.876 89.541C260.483 89.541 261.366 89.2643 262.58 88.7663C264.401 87.9915 266.884 86.2759 270.029 83.5642C273.174 80.9079 276.926 76.9234 281.285 71.6107C281.727 71.1126 282.113 70.8913 282.444 70.8359C282.72 70.8359 282.941 70.8359 283.051 70.8359C283.548 70.8359 283.989 71.0019 284.431 71.334C284.927 71.7214 285.148 72.1087 285.203 72.4408C285.203 72.7728 285.203 72.9942 285.203 73.1049C285.203 73.5476 285.038 73.9903 284.706 74.433C278.802 81.6827 273.395 86.9954 268.484 90.3711C265.063 92.7508 262.194 93.9683 259.876 93.9683ZM270.195 55.6173C269.919 55.6173 269.698 55.5619 269.477 55.5066C268.539 55.1745 267.988 54.2891 267.988 53.3483C267.988 53.1269 268.043 52.9056 268.098 52.6842L268.926 50.3599C269.257 49.4191 270.14 48.8657 271.022 48.8657C271.298 48.8657 271.519 48.9211 271.74 48.9764C272.678 49.3084 273.229 50.1939 273.229 51.1347C273.229 51.356 273.174 51.5774 273.119 51.7988L272.291 54.1231C271.96 55.0639 271.078 55.6173 270.195 55.6173Z" fill="#402E42"/>
<path d="M274.971 94.3003L274.419 94.245C273.702 94.0789 273.205 93.7469 272.929 93.2488C272.653 92.7508 272.488 92.2527 272.433 91.6993C272.378 91.2012 272.322 90.7585 272.322 90.4265C272.433 87.0507 273.15 83.5642 274.419 79.9118C275.688 76.2593 277.123 72.9389 278.723 69.8951C280.268 66.9067 281.482 64.7485 282.31 63.3649C282.641 62.8669 283.027 62.5348 283.413 62.4241C283.799 62.3688 284.02 62.3135 284.186 62.3135C284.572 62.3135 284.958 62.4241 285.344 62.6455C285.841 62.9776 286.172 63.3096 286.282 63.697C286.338 64.0844 286.393 64.3611 286.393 64.5824C286.393 64.9698 286.282 65.3019 286.117 65.6892C283.082 70.6145 280.599 75.8719 278.557 81.5166C280.599 78.1409 282.972 74.7097 285.565 71.2233C288.158 67.7922 290.641 65.0252 292.959 62.9776C294.007 62.0368 294.89 61.3173 295.718 60.93C296.49 60.5426 297.152 60.3765 297.649 60.3765C298.146 60.3765 298.642 60.4872 299.139 60.7639C300.187 61.428 300.739 62.4241 300.739 63.8077C300.739 65.1358 300.573 66.7407 300.187 68.5669C299.58 71.4447 299.304 74.5991 299.304 78.0302C299.359 79.5244 299.47 80.6865 299.691 81.4613C299.856 82.2914 300.077 82.8448 300.353 83.1215C300.573 83.4536 300.739 83.6196 300.849 83.6749C300.96 83.7303 301.125 83.7303 301.346 83.7303H301.677C302.063 83.7303 302.615 83.5642 303.387 83.2322C304.16 82.9002 305.153 82.2914 306.422 81.406C307.636 80.5759 309.126 79.303 310.947 77.5875C312.713 75.9272 314.809 73.769 317.237 71.1126C317.679 70.6699 318.065 70.4485 318.396 70.3932C318.672 70.3932 318.892 70.3932 318.948 70.3932C319.444 70.3932 319.941 70.5592 320.327 70.9466C320.824 71.3893 321.044 71.8874 321.1 72.4961C321.1 73.1049 320.879 73.6029 320.493 74.101C312.106 83.5089 305.76 88.2128 301.401 88.2128C300.573 88.2128 299.801 88.0468 299.084 87.7148C296.876 86.5526 295.607 84.7817 295.332 82.5128C295.056 80.2438 294.89 78.3622 294.89 76.868C294.89 74.101 295.221 71.0573 295.828 67.7368C295.938 67.2388 296.049 66.6854 296.104 66.0766L295.828 66.298C292.904 68.9543 289.814 72.6068 286.558 77.3108C283.303 82.0147 280.82 85.9992 279.22 89.2643C278.723 90.3711 278.226 91.3119 277.785 92.142C277.619 92.5294 277.288 92.9721 276.847 93.4702C276.35 93.9683 275.743 94.245 274.971 94.3003Z" fill="#402E42"/>
<path d="M346.433 126.066C345.55 126.066 344.888 125.568 344.391 124.627C344.281 124.35 344.226 124.018 344.226 123.741C344.226 123.465 344.336 123.133 344.502 122.745C344.667 122.358 345.053 122.026 345.66 121.805C346.047 121.639 347.647 121.03 350.571 119.923C353.496 118.872 356.917 117.654 360.945 116.271C361.331 114.334 362.103 111.345 363.317 107.195C363.869 105.258 364.752 102.38 365.911 98.6722C367.069 94.9644 368.338 91.0906 369.663 87.0507C370.932 83.0108 372.09 79.5797 373.028 76.6467C373.967 73.769 374.463 72.1641 374.573 71.8874C376.284 65.5232 377.167 59.8785 377.167 54.8978C377.167 53.8464 377.056 51.6881 376.781 48.3676C376.505 45.0472 375.456 41.3394 373.691 37.1889C371.87 33.0937 370.049 29.5519 368.173 26.6188C365.469 22.3022 364.09 19.0372 364.09 16.7128C364.09 14.2225 365.414 12.1749 367.952 10.5147C370.104 9.24187 373.139 8.13506 377.056 7.30495C380.974 6.47484 385.002 5.8661 389.14 5.36803C393.279 4.92531 396.645 4.59327 399.348 4.42724L400.507 1.38351C400.948 0.442724 401.611 0 402.493 0C402.769 0 403.1 0.0553406 403.376 0.166022C404.314 0.553406 404.756 1.21749 404.756 2.15828C404.756 2.43498 404.701 2.76703 404.59 3.04373L404.204 4.0952C407.901 3.87384 411.322 3.8185 414.412 3.8185H417.005C419.599 3.87384 421.64 4.03986 423.02 4.20588C424.399 4.42724 425.447 4.64861 426.054 4.92531C426.661 5.20201 427.048 5.47871 427.268 5.75542C427.765 6.36416 428.041 6.97291 428.041 7.58166C428.041 8.07972 427.82 8.63313 427.434 9.18653C427.103 9.79528 426.496 10.072 425.668 10.072C424.84 10.072 424.178 9.62926 423.737 8.79915C422.247 8.41176 419.433 8.24574 415.35 8.24574C411.929 8.24574 407.625 8.35642 402.438 8.63313C399.845 15.274 396.258 24.7372 391.679 37.0782C387.044 49.4191 382.74 61.4834 378.767 73.2709C378.657 73.6583 378.326 74.6544 377.774 76.3146C377.222 77.9748 376.56 80.0224 375.787 82.5128C374.298 86.9954 372.808 91.644 371.263 96.4586C369.718 101.273 368.614 104.87 367.897 107.195C366.959 110.404 366.242 112.895 365.855 114.61C372.863 112.286 379.926 110.57 387.154 109.464C388.699 109.242 389.692 109.132 390.189 109.132C390.354 109.132 390.575 109.187 390.906 109.187C391.182 109.242 391.568 109.353 391.954 109.574C392.341 109.796 392.672 110.183 392.837 110.736C392.948 110.902 393.003 111.179 393.003 111.511C393.003 111.622 392.948 111.843 392.892 112.065C392.837 112.286 392.727 112.563 392.506 112.839C392.286 113.171 391.899 113.448 391.403 113.725C391.016 113.891 390.685 114.002 390.354 114.002C389.968 114.002 389.582 113.891 389.251 113.67C387.816 113.78 384.174 114.444 378.381 115.606C374.684 116.437 370.214 117.765 364.973 119.536L365.028 120.089C365.028 120.421 364.973 120.753 364.807 121.14C364.641 121.528 364.31 121.86 363.814 122.137C363.483 122.303 363.152 122.358 362.821 122.358C361.938 122.303 361.276 121.915 360.834 121.14L360.779 120.974C357.082 122.303 353.937 123.465 351.344 124.406C348.75 125.346 347.371 125.844 347.205 125.9C346.929 126.01 346.709 126.066 346.433 126.066ZM381.471 52.1861C388.037 34.1451 393.389 19.7566 397.583 8.96517C378.215 10.6807 368.504 13.2817 368.504 16.7128C368.504 17.3216 368.725 18.1517 369.221 19.2032C369.663 20.31 370.601 22.0255 371.98 24.3498C373.911 27.3936 375.898 31.2121 377.829 35.75C379.76 40.2879 380.974 45.7666 381.471 52.1861Z" fill="#402E42"/>
<path d="M400.152 99.6683C399.655 99.6683 399.269 99.5577 398.938 99.3363C398.276 98.9489 397.834 98.5062 397.669 97.9528C397.503 97.3994 397.448 96.846 397.448 96.3479C397.448 94.6323 398.331 91.3119 400.152 86.3866C402.524 80.2438 404.676 74.9311 406.607 70.5592C408.539 66.1873 409.587 63.9183 409.753 63.6416C410.029 63.0882 410.36 62.7562 410.746 62.5902C411.132 62.4241 411.463 62.3688 411.684 62.3688C412.015 62.3688 412.346 62.4241 412.677 62.5902C413.229 62.8669 413.56 63.2543 413.725 63.6416C413.891 64.029 413.946 64.3057 413.946 64.5271C413.946 64.8591 413.891 65.1912 413.725 65.5232C413.56 65.7999 412.567 68.0689 410.635 72.3854C408.704 76.702 406.607 81.904 404.29 87.9361V88.0468C407.104 83.5089 410.36 78.5283 414.056 73.1049C417.753 67.7368 421.23 63.531 424.375 60.4872C426.416 58.6056 428.237 57.6649 429.782 57.6649C431.382 57.6649 432.596 58.4396 433.369 60.0998L433.424 60.1552C433.7 60.7086 433.81 61.3727 433.81 62.0921C433.81 63.7523 432.762 66.7407 430.72 71.1126L430.61 71.2786C428.127 76.37 426.747 80.1885 426.416 82.7895C427.244 81.6273 428.127 80.3545 428.954 78.971C430.499 76.37 432.32 73.8796 434.472 71.3893C435.521 70.1718 436.624 69.231 437.728 68.5116C438.887 67.7922 439.825 67.4601 440.652 67.4601C441.204 67.4601 441.756 67.5708 442.308 67.7922C443.577 68.5669 444.239 69.4524 444.294 70.4485C444.349 71.4447 444.349 72.1087 444.349 72.3854C444.349 73.769 444.073 75.7612 443.521 78.4176C443.135 80.2991 442.804 82.0147 442.583 83.6196C442.363 85.1691 442.252 86.3313 442.252 87.1614C442.252 88.2128 442.363 89.1536 442.583 89.9837C442.639 90.2604 442.749 90.4265 442.804 90.5371C442.859 90.6478 442.97 90.7032 443.025 90.7585C443.08 90.8139 443.19 90.8139 443.246 90.8692C443.301 90.8692 443.466 90.8692 443.632 90.8692C444.735 90.8692 446.998 89.707 450.363 87.3827C454.226 84.7264 459.799 79.469 467.027 71.666L467.193 71.5C467.634 71.0573 468.02 70.8359 468.351 70.7806C468.627 70.7806 468.848 70.7806 468.848 70.7806C469.345 70.7806 469.841 71.0019 470.283 71.3893C470.779 71.7767 471 72.1641 471 72.4961C471 72.7728 471 72.9942 471 73.0495C471 73.6583 470.779 74.2117 470.283 74.6544C466.034 79.303 462.116 83.2322 458.53 86.4419C453.674 90.7032 450.198 93.2488 448.101 94.0789C445.949 94.909 444.404 95.2964 443.356 95.2964C442.97 95.2964 442.583 95.2411 442.308 95.1304C439.328 94.411 437.783 91.7546 437.783 87.1614C437.783 84.7264 438.28 81.5166 439.218 77.5321C439.714 75.0971 439.99 73.4369 439.99 72.5515V72.3301C439.493 72.6068 438.721 73.3262 437.728 74.3777C435.852 76.536 434.196 78.8603 432.707 81.3506C431.713 82.9555 430.72 84.3943 429.782 85.6672C428.789 86.94 427.741 87.9361 426.582 88.6002C425.92 88.9323 425.368 89.043 424.871 89.043C424.154 89.043 423.547 88.8769 423.05 88.4342C422.168 87.8255 421.726 86.6633 421.726 84.8924C421.726 81.2399 423.382 76.0933 426.637 69.4524L426.692 69.231C427.189 68.2349 427.685 67.0174 428.292 65.5786C428.899 64.195 429.23 63.0882 429.341 62.2581C428.954 62.4241 428.292 62.9222 427.299 63.7523C424.099 66.9067 420.512 71.4447 416.539 77.3661C412.512 83.2875 409.256 88.3235 406.718 92.4741C405.173 94.9644 404.124 96.5693 403.573 97.2887C402.911 98.2295 402.304 98.8382 401.752 99.1703C401.145 99.5023 400.648 99.6683 400.152 99.6683Z" fill="#402E42"/>
</svg>
